<svg width="37" height="37" viewBox="0 0 37 37" fill="none" xmlns="http://www.w3.org/2000/svg">
<g clip-path="url(#clip0_6_214)">
<path d="M35.1189 21.702H31.9295C31.142 18.7411 29.3982 16.1235 26.9692 14.2561C24.5403 12.3887 21.5623 11.3763 18.4985 11.3763C15.4347 11.3763 12.4568 12.3887 10.0278 14.2561C7.59886 16.1235 5.85503 18.7411 5.06752 21.702H1.88108C0.193885 21.702 -0.640835 19.6492 0.569805 18.4719L17.188 2.29401C17.5391 1.95201 18.0099 1.76062 18.5 1.76062C18.9901 1.76062 19.4609 1.95201 19.812 2.29401L36.4302 18.4719C37.6408 19.6492 36.8061 21.702 35.1189 21.702Z" fill="#3C7C40"/>
<path d="M28.4641 25.274C28.4623 27.7566 27.533 30.149 25.8586 31.9819C24.1841 33.8148 21.8852 34.9559 19.4129 35.1815C16.9406 35.4072 14.4731 34.701 12.4946 33.2014C10.516 31.7019 9.16904 29.5172 8.71791 27.076C8.26678 24.6347 8.74401 22.1129 10.056 20.0053C11.368 17.8977 13.4201 16.3563 15.8098 15.6835C18.1995 15.0106 20.7543 15.2549 22.9733 16.3683C25.1922 17.4817 26.9151 19.384 27.804 21.702C28.241 22.8421 28.4648 24.0529 28.4641 25.274Z" fill="#3C7C40"/>
</g>
<defs>
<clipPath id="clip0_6_214">
<rect width="37" height="37" fill="white"/>
</clipPath>
</defs>
</svg>
