<svg width="213" height="50" viewBox="0 0 213 50" fill="none" xmlns="http://www.w3.org/2000/svg">
<path d="M82.865 41L74.405 30.38V41H68.105V7.7H74.405V26.645L82.775 16.07H90.965L79.985 28.58L91.055 41H82.865ZM117.919 16.07V41H111.574V37.85C110.764 38.93 109.699 39.785 108.379 40.415C107.089 41.015 105.679 41.315 104.149 41.315C102.199 41.315 100.474 40.91 98.9743 40.1C97.4743 39.26 96.2893 38.045 95.4193 36.455C94.5793 34.835 94.1593 32.915 94.1593 30.695V16.07H100.459V29.795C100.459 31.775 100.954 33.305 101.944 34.385C102.934 35.435 104.284 35.96 105.994 35.96C107.734 35.96 109.099 35.435 110.089 34.385C111.079 33.305 111.574 31.775 111.574 29.795V16.07H117.919ZM131.47 21.245V33.305C131.47 34.145 131.665 34.76 132.055 35.15C132.475 35.51 133.165 35.69 134.125 35.69H137.05V41H133.09C127.78 41 125.125 38.42 125.125 33.26V21.245H122.155V16.07H125.125V9.905H131.47V16.07H137.05V21.245H131.47ZM139.962 28.445C139.962 25.925 140.457 23.69 141.447 21.74C142.467 19.79 143.832 18.29 145.542 17.24C147.282 16.19 149.217 15.665 151.347 15.665C153.207 15.665 154.827 16.04 156.207 16.79C157.617 17.54 158.742 18.485 159.582 19.625V16.07H165.927V41H159.582V37.355C158.772 38.525 157.647 39.5 156.207 40.28C154.797 41.03 153.162 41.405 151.302 41.405C149.202 41.405 147.282 40.865 145.542 39.785C143.832 38.705 142.467 37.19 141.447 35.24C140.457 33.26 139.962 30.995 139.962 28.445ZM159.582 28.535C159.582 27.005 159.282 25.7 158.682 24.62C158.082 23.51 157.272 22.67 156.252 22.1C155.232 21.5 154.137 21.2 152.967 21.2C151.797 21.2 150.717 21.485 149.727 22.055C148.737 22.625 147.927 23.465 147.297 24.575C146.697 25.655 146.397 26.945 146.397 28.445C146.397 29.945 146.697 31.265 147.297 32.405C147.927 33.515 148.737 34.37 149.727 34.97C150.747 35.57 151.827 35.87 152.967 35.87C154.137 35.87 155.232 35.585 156.252 35.015C157.272 34.415 158.082 33.575 158.682 32.495C159.282 31.385 159.582 30.065 159.582 28.535ZM185.895 15.71C188.865 15.71 191.265 16.655 193.095 18.545C194.925 20.405 195.84 23.015 195.84 26.375V41H189.54V27.23C189.54 25.25 189.045 23.735 188.055 22.685C187.065 21.605 185.715 21.065 184.005 21.065C182.265 21.065 180.885 21.605 179.865 22.685C178.875 23.735 178.38 25.25 178.38 27.23V41H172.08V16.07H178.38V19.175C179.22 18.095 180.285 17.255 181.575 16.655C182.895 16.025 184.335 15.71 185.895 15.71ZM205.026 13.1C203.916 13.1 202.986 12.755 202.236 12.065C201.516 11.345 201.156 10.46 201.156 9.41C201.156 8.36 201.516 7.49 202.236 6.8C202.986 6.08 203.916 5.72 205.026 5.72C206.136 5.72 207.051 6.08 207.771 6.8C208.521 7.49 208.896 8.36 208.896 9.41C208.896 10.46 208.521 11.345 207.771 12.065C207.051 12.755 206.136 13.1 205.026 13.1ZM208.131 16.07V41H201.831V16.07H208.131Z" fill="white"/>
<g clip-path="url(#clip0_6_217)">
<path d="M47.458 29.3269H43.148C42.0838 25.3258 39.7273 21.7884 36.4449 19.2649C33.1625 16.7414 29.1383 15.3733 24.998 15.3733C20.8577 15.3733 16.8335 16.7414 13.5511 19.2649C10.2687 21.7884 7.91218 25.3258 6.84799 29.3269H2.54199C0.261987 29.3269 -0.866013 26.5529 0.769987 24.9619L23.227 3.09994C23.7015 2.63778 24.3376 2.37915 25 2.37915C25.6623 2.37915 26.2985 2.63778 26.773 3.09994L49.23 24.9619C50.866 26.5529 49.738 29.3269 47.458 29.3269Z" fill="white"/>
<path d="M38.465 34.1539C38.4626 37.5088 37.2068 40.7417 34.944 43.2186C32.6812 45.6955 29.5747 47.2376 26.2337 47.5425C22.8927 47.8474 19.5583 46.8931 16.8846 44.8667C14.2108 42.8403 12.3906 39.888 11.781 36.589C11.1713 33.29 11.8163 29.8822 13.5892 27.0341C15.3622 24.186 18.1353 22.103 21.3646 21.1938C24.5939 20.2845 28.0464 20.6146 31.045 22.1192C34.0435 23.6238 36.3717 26.1945 37.573 29.3269C38.1636 30.8676 38.4659 32.5038 38.465 34.1539Z" fill="white"/>
</g>
<defs>
<clipPath id="clip0_6_217">
<rect width="50" height="50" fill="white"/>
</clipPath>
</defs>
</svg>
